<svg height="53.6887021377" width="66.0978775533">
<polygon id="177056" points="5.71,24.38 8.18,24.38 8.18,24.28 8.18,21.76 8.1,8.21 5.71,8.21" style="stroke-width:0.25" />
<text x="7.35" y="18.54" font-family="Arial" font-size="0.5" fill="blue">Vest.</text>
<polygon id="177304" points="10.97,45.44 13.57,45.44 17.01,45.44 17.01,42.92 16.87,42.92 16.87,37.29 16.16,37.29 16.16,37.07 16.87,37.07 16.96,37.07 16.96,31.3 16.87,31.3 16.16,31.3 16.16,31.07 16.87,31.07 16.87,20.7 16.16,20.7 16.16,20.47 16.87,20.47 16.87,12.93 16.16,12.93 16.16,12.71 16.87,12.71 16.87,10.79 17.01,10.79 17.01,8.24 8.27,8.24 8.27,24.28 8.18,24.28 8.18,24.43 8.25,24.43 8.25,26.2 7.36,26.2 7.36,28.13 8.25,28.13 8.25,34.23 8.25,38.23 8.25,45.43 8.33,45.43 8.33,46.31 10.97,46.31" style="stroke-width:0.25" />
<text x="13.4" y="29.21" font-family="Arial" font-size="0.5" fill="blue">Lobby</text>
<polygon id="177305" points="17.9,0.0 16.36,0.0 16.36,0.01 0.0,0.01 0.0,8.02 5.63,8.02 5.71,8.02 8.1,8.02 8.34,8.02 8.34,8.14 17.9,8.14 17.9,5.89" style="stroke-width:0.25" />
<text x="10.21" y="5.19" font-family="Arial" font-size="0.5" fill="blue">Cafeteria</text>
<polygon id="177306" points="21.86,0.0 17.99,0.0 17.99,5.83 21.86,5.83" style="stroke-width:0.25" />
<text x="19.93" y="2.92" font-family="Arial" font-size="0.5" fill="blue">Prep/Dish</text>
<polygon id="177307" points="17.99,8.2 21.86,8.2 21.86,5.92 17.99,5.92 17.99,8.14" style="stroke-width:0.25" />
<text x="19.54" y="7.28" font-family="Arial" font-size="0.5" fill="blue">Dry Storage</text>
<polygon id="177308" points="21.95,8.2 24.6,8.2 24.6,5.92 21.95,5.92" style="stroke-width:0.25" />
<text x="23.28" y="7.06" font-family="Arial" font-size="0.5" fill="blue">Electrical</text>
<polygon id="177309" points="27.88,0.0 21.95,0.0 21.95,5.83 24.69,5.83 24.69,8.2 27.88,8.2 27.88,2.61" style="stroke-width:0.25" />
<text x="25.28" y="4.38" font-family="Arial" font-size="0.5" fill="blue">Conference</text>
<polygon id="177310" points="34.08,0.0 27.97,0.0 27.97,2.55 30.93,2.55 34.08,2.55" style="stroke-width:0.25" />
<text x="31.01" y="1.53" font-family="Arial" font-size="0.5" fill="blue">Office</text>
<polygon id="177311" points="27.97,8.2 30.89,8.2 30.89,5.89 30.89,2.64 27.97,2.64" style="stroke-width:0.25" />
<text x="29.72" y="5.52" font-family="Arial" font-size="0.5" fill="blue">Admin</text>
<polygon id="177312" points="34.08,5.83 34.08,2.64 30.98,2.64 30.98,5.83 33.58,5.83" style="stroke-width:0.25" />
<text x="32.74" y="4.56" font-family="Arial" font-size="0.5" fill="blue">Storage</text>
<polygon id="177313" points="30.98,8.2 33.55,8.2 33.55,5.92 30.98,5.92" style="stroke-width:0.25" />
<text x="32.26" y="7.06" font-family="Arial" font-size="0.5" fill="blue">Toilet</text>
<polygon id="177314" points="36.94,0.0 34.28,0.0 34.28,2.61 34.28,5.89 34.28,7.07 36.94,7.07" style="stroke-width:0.25" />
<text x="35.17" y="3.77" font-family="Arial" font-size="0.5" fill="blue">Stair</text>
<polygon id="177315" points="34.28,8.29 33.58,8.29 30.93,8.29 27.92,8.29 24.64,8.29 21.9,8.29 17.94,8.29 17.94,8.24 17.01,8.24 17.01,10.79 36.99,10.79 36.99,8.16 36.94,8.16 36.94,7.27 34.28,7.27" style="stroke-width:0.25" />
<text x="28.35" y="8.46" font-family="Arial" font-size="0.5" fill="blue">Corridor</text>
<polygon id="177316" points="2.58,24.57 0.01,24.57 0.01,28.13 2.58,28.13" style="stroke-width:0.25" />
<text x="1.29" y="26.35" font-family="Arial" font-size="0.5" fill="blue">Sprinkler</text>
<polygon id="177317" points="8.16,24.57 5.71,24.57 5.63,24.57 2.67,24.57 2.67,28.13 7.26,28.13 7.26,26.11 8.16,26.11" style="stroke-width:0.25" />
<text x="5.94" y="25.84" font-family="Arial" font-size="0.5" fill="blue">Electrical</text>
<polygon id="177318" points="8.16,28.22 7.32,28.22 2.62,28.22 0.0,28.22 0.0,34.2 8.16,34.2" style="stroke-width:0.25" />
<text x="4.38" y="30.21" font-family="Arial" font-size="0.5" fill="blue">Instruction</text>
<polygon id="177319" points="16.96,37.07 17.56,37.07 23.72,37.07 23.72,31.3 17.56,31.3 16.96,31.3" style="stroke-width:0.25" />
<text x="19.41" y="34.18" font-family="Arial" font-size="0.5" fill="blue">Lounge</text>
<polygon id="177320" points="8.16,34.29 0.0,34.29 0.0,38.2 8.16,38.2" style="stroke-width:0.25" />
<text x="4.08" y="36.24" font-family="Arial" font-size="0.5" fill="blue">Conference</text>
<polygon id="177321" points="8.16,38.29 0.0,38.29 0.0,53.69 8.13,53.69 8.13,46.5 8.13,46.31 8.13,45.43 8.16,45.43" style="stroke-width:0.25" />
<text x="6.11" y="45.95" font-family="Arial" font-size="0.5" fill="blue">Instruction</text>
<polygon id="177322" points="8.33,46.5 8.33,53.69 8.33,53.69 10.97,53.69 10.97,46.5" style="stroke-width:0.25" />
<text x="9.39" y="50.81" font-family="Arial" font-size="0.5" fill="blue">Stair</text>
<polygon id="177324" points="16.87,45.53 13.61,45.53 13.61,47.77 16.91,47.77 16.91,45.53" style="stroke-width:0.25" />
<text x="15.58" y="46.43" font-family="Arial" font-size="0.5" fill="blue">Electrical</text>
<polygon id="177325" points="13.52,45.53 11.17,45.53 11.17,46.31 11.17,46.5 11.17,53.69 16.91,53.69 16.91,47.86 13.52,47.86" style="stroke-width:0.25" />
<text x="13.19" y="48.37" font-family="Arial" font-size="0.5" fill="blue">Lounge</text>
<polygon id="177326" points="17.0,53.69 19.42,53.69 19.42,47.86 18.66,47.86 17.0,47.86" style="stroke-width:0.25" />
<text x="18.3" y="50.19" font-family="Arial" font-size="0.5" fill="blue">Men</text>
<polygon id="177328" points="20.01,53.69 22.31,53.69 22.31,53.68 22.31,53.16 22.31,53.1 22.31,47.86 20.66,47.86 20.01,47.86" style="stroke-width:0.25" />
<text x="21.53" y="51.36" font-family="Arial" font-size="0.5" fill="blue">Women</text>
<polygon id="177329" points="66.1,46.32 66.1,45.43 66.08,45.43 66.08,42.92 17.01,42.92 17.01,45.34 17.01,45.49 17.0,45.49 17.0,47.77 18.61,47.77 18.61,45.44 20.7,45.44 20.7,47.77 22.31,47.77 22.31,45.84 22.31,45.78 22.31,45.44 33.43,45.44 39.43,45.44 51.43,45.44 57.43,45.44 63.44,45.44 63.44,46.32" style="stroke-width:0.25" />
<text x="35.91" y="45.73" font-family="Arial" font-size="0.5" fill="blue">Corridor</text>
<polygon id="177330" points="22.4,45.78 22.52,45.78 22.52,45.78 22.52,45.78 22.52,45.77 22.52,45.77 22.52,45.76 22.52,45.76 22.52,45.76 22.53,45.75 22.53,45.75 22.53,45.74 22.53,45.74 22.53,45.74 22.54,45.73 22.54,45.73 22.54,45.73 22.54,45.72 22.55,45.72 22.55,45.71 22.55,45.71 22.56,45.71 22.56,45.71 22.56,45.7 22.57,45.7 22.57,45.7 22.57,45.69 22.58,45.69 22.58,45.69 22.58,45.69 22.59,45.68 22.59,45.68 22.59,45.68 22.6,45.68 22.6,45.68 22.61,45.68 22.61,45.67 22.61,45.67 22.62,45.67 22.62,45.67 22.63,45.67 22.63,45.67 22.64,45.67 22.64,45.67 22.64,45.67 22.65,45.66 22.65,45.66 22.66,45.66 22.66,45.66 22.67,45.66 22.67,45.66 22.67,45.66 22.68,45.67 22.68,45.67 22.69,45.67 22.69,45.67 22.7,45.67 22.7,45.67 22.7,45.67 22.71,45.67 22.71,45.67 22.72,45.67 22.72,45.68 22.73,45.68 22.73,45.68 22.73,45.68 22.74,45.68 22.74,45.69 22.74,45.69 22.75,45.69 22.75,45.69 22.76,45.7 22.76,45.7 22.76,45.7 22.76,45.71 22.77,45.71 22.77,45.71 22.77,45.71 22.78,45.72 22.78,45.72 22.78,45.72 22.78,45.73 22.79,45.73 22.79,45.74 22.79,45.74 22.79,45.74 22.8,45.75 22.8,45.75 22.8,45.75 22.8,45.76 22.8,45.76 22.8,45.77 22.81,45.77 22.81,45.78 22.81,45.78 22.81,45.78 22.81,45.79 22.81,45.79 22.81,45.8 22.81,45.8 22.81,45.81 22.81,45.81 22.81,45.81 22.81,45.82 22.81,45.82 22.81,45.83 22.81,45.83 22.81,45.84 22.81,45.84 22.81,45.84 22.81,45.85 22.81,45.85 22.81,45.86 22.8,45.86 22.8,45.87 22.8,45.87 22.8,45.87 22.8,45.88 22.8,45.88 22.79,45.89 22.79,45.89 22.79,45.89 22.79,45.9 22.78,45.9 22.78,45.9 22.78,45.91 22.78,45.91 22.77,45.91 22.77,45.92 22.77,45.92 22.76,45.92 22.76,45.93 22.76,45.93 22.76,45.93 22.75,45.93 22.75,45.94 22.74,45.94 22.74,45.94 22.74,45.94 22.73,45.95 22.73,45.95 22.73,45.95 22.72,45.95 22.72,45.95 22.71,45.96 22.71,45.96 22.7,45.96 22.7,45.96 22.7,45.96 22.69,45.96 22.69,45.96 22.68,45.96 22.68,45.96 22.67,45.96 22.67,45.96 22.67,45.96 22.66,45.96 22.66,45.96 22.65,45.96 22.65,45.96 22.64,45.96 22.64,45.96 22.64,45.96 22.63,45.96 22.63,45.96 22.62,45.96 22.62,45.96 22.61,45.96 22.61,45.96 22.61,45.95 22.6,45.95 22.6,45.95 22.59,45.95 22.59,45.95 22.59,45.94 22.58,45.94 22.58,45.94 22.58,45.94 22.57,45.93 22.57,45.93 22.57,45.93 22.56,45.93 22.56,45.92 22.56,45.92 22.55,45.92 22.55,45.91 22.55,45.91 22.54,45.91 22.54,45.9 22.54,45.9 22.54,45.9 22.53,45.89 22.53,45.89 22.53,45.89 22.53,45.88 22.53,45.88 22.52,45.87 22.52,45.87 22.52,45.87 22.52,45.86 22.52,45.86 22.52,45.85 22.52,45.85 22.52,45.84 22.4,45.84 22.4,47.81 22.4,53.1 22.52,53.1 22.52,53.1 22.52,53.09 22.52,53.09 22.52,53.08 22.52,53.08 22.52,53.07 22.52,53.07 22.53,53.07 22.53,53.06 22.53,53.06 22.53,53.05 22.53,53.05 22.54,53.05 22.54,53.04 22.54,53.04 22.54,53.04 22.55,53.03 22.55,53.03 22.55,53.03 22.56,53.02 22.56,53.02 22.56,53.02 22.57,53.01 22.57,53.01 22.57,53.01 22.58,53.01 22.58,53.0 22.58,53.0 22.59,53.0 22.59,53.0 22.59,53.0 22.6,52.99 22.6,52.99 22.61,52.99 22.61,52.99 22.61,52.99 22.62,52.99 22.62,52.98 22.63,52.98 22.63,52.98 22.64,52.98 22.64,52.98 22.64,52.98 22.65,52.98 22.65,52.98 22.66,52.98 22.66,52.98 22.67,52.98 22.67,52.98 22.67,52.98 22.68,52.98 22.68,52.98 22.69,52.98 22.69,52.98 22.7,52.98 22.7,52.98 22.7,52.99 22.71,52.99 22.71,52.99 22.72,52.99 22.72,52.99 22.73,52.99 22.73,53.0 22.73,53.0 22.74,53.0 22.74,53.0 22.74,53.0 22.75,53.01 22.75,53.01 22.76,53.01 22.76,53.01 22.76,53.02 22.76,53.02 22.77,53.02 22.77,53.03 22.77,53.03 22.78,53.03 22.78,53.04 22.78,53.04 22.78,53.04 22.79,53.05 22.79,53.05 22.79,53.05 22.79,53.06 22.8,53.06 22.8,53.07 22.8,53.07 22.8,53.07 22.8,53.08 22.8,53.08 22.81,53.09 22.81,53.09 22.81,53.09 22.81,53.1 22.81,53.1 22.81,53.11 22.81,53.11 22.81,53.12 22.81,53.12 22.81,53.13 22.81,53.13 22.81,53.13 22.81,53.14 22.81,53.14 22.81,53.15 22.81,53.15 22.81,53.16 22.81,53.16 22.81,53.16 22.81,53.17 22.81,53.17 22.8,53.18 22.8,53.18 22.8,53.19 22.8,53.19 22.8,53.19 22.8,53.2 22.79,53.2 22.79,53.2 22.79,53.21 22.79,53.21 22.78,53.22 22.78,53.22 22.78,53.22 22.78,53.23 22.77,53.23 22.77,53.23 22.77,53.24 22.76,53.24 22.76,53.24 22.76,53.24 22.76,53.25 22.75,53.25 22.75,53.25 22.74,53.26 22.74,53.26 22.74,53.26 22.73,53.26 22.73,53.26 22.73,53.27 22.72,53.27 22.72,53.27 22.71,53.27 22.71,53.27 22.7,53.27 22.7,53.27 22.7,53.28 22.69,53.28 22.69,53.28 22.68,53.28 22.68,53.28 22.67,53.28 22.67,53.28 22.67,53.28 22.66,53.28 22.66,53.28 22.65,53.28 22.65,53.28 22.64,53.28 22.64,53.28 22.64,53.28 22.63,53.28 22.63,53.28 22.62,53.27 22.62,53.27 22.61,53.27 22.61,53.27 22.61,53.27 22.6,53.27 22.6,53.27 22.59,53.26 22.59,53.26 22.59,53.26 22.58,53.26 22.58,53.25 22.58,53.25 22.57,53.25 22.57,53.25 22.57,53.24 22.56,53.24 22.56,53.24 22.56,53.24 22.55,53.23 22.55,53.23 22.55,53.23 22.54,53.22 22.54,53.22 22.54,53.22 22.54,53.21 22.53,53.21 22.53,53.2 22.53,53.2 22.53,53.2 22.53,53.19 22.52,53.19 22.52,53.18 22.52,53.18 22.52,53.18 22.52,53.17 22.52,53.17 22.52,53.16 22.52,53.16 22.4,53.16 22.4,53.68 33.39,53.68 33.39,45.53 22.4,45.53" style="stroke-width:0.25" />
<text x="22.72" y="49.47" font-family="Arial" font-size="0.5" fill="blue">Instruction</text>
<polygon id="177331" points="39.38,45.53 33.49,45.53 33.49,53.68 39.38,53.68" style="stroke-width:0.25" />
<text x="36.43" y="49.6" font-family="Arial" font-size="0.5" fill="blue">Instruction</text>
<polygon id="177332" points="51.39,45.53 39.47,45.53 39.47,53.68 51.39,53.68" style="stroke-width:0.25" />
<text x="45.43" y="49.6" font-family="Arial" font-size="0.5" fill="blue">Instruction</text>
<polygon id="177333" points="57.39,45.53 51.49,45.53 51.49,53.68 57.39,53.68" style="stroke-width:0.25" />
<text x="54.44" y="49.6" font-family="Arial" font-size="0.5" fill="blue">Instruction</text>
<polygon id="177334" points="63.24,45.53 57.49,45.53 57.49,53.68 63.24,53.68 63.24,46.5 63.24,46.32" style="stroke-width:0.25" />
<text x="61.32" y="48.54" font-family="Arial" font-size="0.5" fill="blue">Conference</text>
<polygon id="177335" points="66.1,53.69 66.1,46.5 63.44,46.5 63.44,53.68 63.44,53.69" style="stroke-width:0.25" />
<text x="64.51" y="50.81" font-family="Arial" font-size="0.5" fill="blue">Stair</text>
<polygon id="433699" points="6.07,41.5 6.07,41.44 6.07,41.37 6.06,41.3 6.06,41.24 6.05,41.17 6.04,41.11 6.02,41.04 6.01,40.97 5.99,40.91 5.97,40.85 5.95,40.78 5.93,40.72 5.9,40.66 5.87,40.6 5.84,40.54 5.81,40.48 5.78,40.42 5.75,40.36 5.71,40.31 5.67,40.25 5.63,40.2 5.59,40.15 5.55,40.1 5.5,40.05 5.46,40.0 5.41,39.95 5.36,39.91 5.31,39.86 5.26,39.82 5.2,39.78 5.15,39.74 5.1,39.7 5.04,39.67 4.98,39.63 4.92,39.6 4.86,39.57 4.8,39.54 4.74,39.52 4.68,39.49 4.62,39.47 4.55,39.45 4.49,39.43 4.42,39.42 4.36,39.4 4.29,39.39 4.23,39.38 4.16,39.37 4.09,39.36 4.03,39.36 3.96,39.36 3.89,39.36 3.83,39.36 3.76,39.36 3.69,39.37 3.63,39.38 3.56,39.39 3.5,39.4 3.43,39.42 3.37,39.43 3.3,39.45 3.24,39.47 3.18,39.49 3.11,39.52 3.05,39.54 2.99,39.57 2.93,39.6 2.87,39.63 2.82,39.67 2.76,39.7 2.7,39.74 2.65,39.78 2.6,39.82 2.54,39.86 2.49,39.91 2.45,39.95 2.4,40.0 2.35,40.05 2.31,40.1 2.26,40.15 2.22,40.2 2.18,40.25 2.14,40.31 2.11,40.36 2.07,40.42 2.04,40.48 2.01,40.54 1.98,40.6 1.95,40.66 1.93,40.72 1.91,40.78 1.88,40.85 1.86,40.91 1.85,40.97 1.83,41.04 1.82,41.11 1.81,41.17 1.8,41.24 1.79,41.3 1.78,41.37 1.78,41.44 1.78,41.5 1.78,41.57 1.78,41.64 1.79,41.7 1.8,41.77 1.81,41.84 1.82,41.9 1.83,41.97 1.85,42.03 1.86,42.1 1.88,42.16 1.91,42.22 1.93,42.29 1.95,42.35 1.98,42.41 2.01,42.47 2.04,42.53 2.07,42.59 2.11,42.64 2.14,42.7 2.18,42.75 2.22,42.81 2.26,42.86 2.31,42.91 2.35,42.96 2.4,43.01 2.45,43.06 2.49,43.1 2.54,43.14 2.6,43.19 2.65,43.23 2.7,43.27 2.76,43.3 2.82,43.34 2.87,43.37 2.93,43.4 2.99,43.43 3.05,43.46 3.11,43.49 3.18,43.51 3.24,43.54 3.3,43.56 3.37,43.57 3.43,43.59 3.5,43.61 3.56,43.62 3.63,43.63 3.69,43.64 3.76,43.64 3.83,43.65 3.89,43.65 3.96,43.65 4.03,43.65 4.09,43.64 4.16,43.64 4.23,43.63 4.29,43.62 4.36,43.61 4.42,43.59 4.49,43.57 4.55,43.56 4.62,43.54 4.68,43.51 4.74,43.49 4.8,43.46 4.86,43.43 4.92,43.4 4.98,43.37 5.04,43.34 5.1,43.3 5.15,43.27 5.2,43.23 5.26,43.19 5.31,43.14 5.36,43.1 5.41,43.06 5.46,43.01 5.5,42.96 5.55,42.91 5.59,42.86 5.63,42.81 5.67,42.75 5.71,42.7 5.75,42.64 5.78,42.59 5.81,42.53 5.84,42.47 5.87,42.41 5.9,42.35 5.93,42.29 5.95,42.22 5.97,42.16 5.99,42.1 6.01,42.03 6.02,41.97 6.04,41.9 6.05,41.84 6.06,41.77 6.06,41.7 6.07,41.64 6.07,41.57" style="stroke-width:0.25" />
<text x="3.93" y="41.5" font-family="Arial" font-size="0.5" fill="blue">Circle Room</text></svg>